<svg width="42" height="42" viewBox="0 0 42 42" fill="none" xmlns="http://www.w3.org/2000/svg">
<path d="M2.7998 0.5H39.2002C40.4639 0.500106 41.4999 1.5361 41.5 2.7998V39.2002C41.4999 40.4639 40.4639 41.4999 39.2002 41.5H2.7998C1.5361 41.4999 0.500106 40.4639 0.5 39.2002V2.7998C0.500107 1.5361 1.5361 0.500107 2.7998 0.5Z" fill="#8B4513" stroke="#5A2D0C"/>
<path d="M2.7998 0.5H39.2002C39.6483 0.500037 40.0704 0.631912 40.4365 0.855469L34.6465 6.64648L34.5 6.79297V33C34.5 33.8496 33.8731 34.5 33 34.5H5.7666L5.61719 34.6787L0.828125 40.3887C0.621873 40.0337 0.500035 39.6291 0.5 39.2002V2.7998C0.500107 1.5361 1.5361 0.500107 2.7998 0.5Z" fill="#D2B48C" stroke="#5A2D0C"/>
<path d="M5.5 32.5L5.5 6.5" stroke="#C8A474" stroke-linecap="round"/>
<path d="M5.5 6.5L32.5 6.5" stroke="#C8A474" stroke-linecap="round"/>
</svg>
