<svg width="128" height="128" viewBox="0 0 128 128" fill="none" xmlns="http://www.w3.org/2000/svg">
<g clip-path="url(#clip0_18_47)">
<mask id="mask0_18_47" style="mask-type:alpha" maskUnits="userSpaceOnUse" x="0" y="0" width="128" height="128">
<path d="M104 8H112V16H120V24H128V104H120V112H112V120H104V128H32V120H16V112H8V104H0V24H8V16H16V8H24V0H104V8Z" fill="#A3850F"/>
</mask>
<g mask="url(#mask0_18_47)">
<rect width="128" height="128" fill="#F8EAB3"/>
</g>
<path d="M97 104H89V96H97V104ZM105 96H97V88H105V96ZM32 40H24V32H32V40ZM40 32H32V24H40V32Z" fill="#E0B715"/>
<path d="M104 120V128H24V120H104ZM24 120H16V112H24V120ZM112 120H104V112H112V120ZM16 112H8V104H16V112ZM120 112H112V104H120V112ZM8 104H0V24H8V104ZM128 104H120V24H128V104ZM16 24H8V16H16V24ZM120 24H112V16H120V24ZM24 16H16V8H24V16ZM112 16H104V8H112V16ZM104 8H24V0H104V8Z" fill="#A3850F"/>
</g>
<defs>
<clipPath id="clip0_18_47">
<rect width="128" height="128" fill="white"/>
</clipPath>
</defs>
</svg>
