<svg xmlns="http://www.w3.org/2000/svg" width="942" height="708" viewBox="0 0 942 708"><g fill="none" fill-rule="evenodd"><path fill="#E1D1B7" d="M41.9554469,145.73264 C203.400204,140.221067 334.908186,137.46528 436.479391,137.46528 C538.050596,137.46528 691.209281,140.221067 895.955447,145.73264 L895.955447,154 L41.9554469,154"/><path fill="#B89E7A" d="M41.9554469,128.016868 L41.9554469,145.73264 C160.717347,141.008434 294.630962,138.646331 443.696292,138.646331 C592.761622,138.646331 743.514674,141.008434 895.955447,145.73264 L895.955447,128.016868 C693.347622,116.93056 542.594571,111.387405 443.696292,111.387405 C344.798013,111.387405 210.884398,116.93056 41.9554469,128.016868 Z"/><path fill="#F0E7DB" d="M53.8014127,1.00646712 L92.4104863,3.36857 L348.449606,15.1790844 L513.046183,18.7222387 L657.322195,23.4464445 L785.341755,16.3601358 L864.591959,9.2738272 L886.94458,9.2738272 L905.233089,12.8169815 C910.006296,14.4788546 914.070409,16.4472737 917.425428,18.7222387 C920.780446,20.9972038 924.844559,24.5403581 929.617767,29.3517017 L937.745993,56.5158848 L937.745993,80.1369136 L929.617767,110.844251 L917.425428,126.19792 C914.051279,128.753199 911.34187,130.327935 909.297202,130.922126 C907.252533,131.516316 904.543125,131.516316 901.168976,130.922126 L470.372996,120.292663 L376.898397,115.568457 L265.135289,120.292663 L179.788916,120.292663 L61.9296387,130.922126 L39.5770171,128.560023 L19.2564521,117.93056 L7.06411301,97.8526852 L3,70.6885021 L3,50.6106276 L15.192339,18.7222387 L31.4487911,6.91172432 C38.2989657,4.61235595 43.0404308,3.03762069 45.6731866,2.18751856 C48.3059424,1.33741643 51.0153511,0.943732619 53.8014127,1.00646712 Z"/><path fill="#E1D1B7" d="M897.104863,17.5411873 C890.340091,19.263734 885.598625,21.6258369 882.880467,24.6274959 C880.162309,27.6291549 878.130253,33.5344121 876.784298,42.3432675 L858.495789,42.3432675 L853.952765,43.1347627 C869.451521,42.5020008 882.480849,46.1750072 893.04075,54.1537819 C913.361315,69.5074506 893.04075,89.5853251 891.008693,90.7663766 C888.976637,91.947428 884.994433,91.2146731 882.880467,91.947428 C879.992886,92.948338 880.848411,95.4905823 876.784298,95.4905823 C872.720185,95.4905823 872.86497,93.1448127 870.688128,93.1284794 C869.392124,93.1187553 868.03742,94.2998067 866.624015,96.6716338 L858.495789,86.0421708 C858.147775,80.2346029 858.147775,75.5103971 858.495789,71.8695535 C858.843803,68.2287099 860.87586,63.898188 864.591959,58.8779877 L864.591959,57.6969362 L854.431676,60.0590391 C848.559528,67.0534221 847.204823,74.5334146 850.367563,82.4990165 L850.653163,83.2170008 L850.935461,83.9226979 C855.570379,95.4656468 861.493479,107.815563 884.912524,120.292663 C899.604692,128.120294 895.485782,126.944125 872.555794,116.764157 L880.848411,122.654765 L901.168976,130.922126 L838.175224,130.922126 L734.540342,128.560023 L600.424613,122.654765 L462.24477,121.473714 L464.276827,117.93056 L407.379245,120.292663 L376.898397,115.568457 L366.738115,117.93056 L299.68025,119.111611 C274.751597,119.766391 255.785736,120.160075 242.782668,120.292663 C229.779599,120.42525 210.136387,120.818934 183.853029,121.473714 L57.8655257,130.922126 C52.0578294,129.12137 47.9937164,127.546635 45.6731866,126.19792 C43.3526569,124.849205 41.9979526,123.668153 41.6090736,122.654765 C57.8023124,117.675829 70.6720036,112.951623 80.2181472,108.482148 C94.5373626,101.777936 111.502812,88.6722757 114.763108,87.2232222 C116.365626,86.5109756 115.894716,87.8291028 115.246314,89.4011496 L115.110251,89.729441 L114.972855,90.0614825 C114.379969,91.5034035 113.854616,92.9524714 114.763108,93.1284794 C116.824685,93.5278824 120.859277,89.5853251 126.955447,89.5853251 C133.051616,89.5853251 151.262626,90.6770773 163.532464,93.1284794 C175.802302,95.5798816 182.297387,101.638831 191.981255,102.576891 C201.665123,103.514951 210.288025,99.6235042 224.494159,99.0337366 C238.700293,98.4439691 238.718555,100.214788 248.878837,100.214788 C259.03912,100.214788 270.280122,95.7729002 283.423798,96.6716338 C296.567474,97.5703673 301.453382,101.825837 317.968758,104.938994 C324.790327,106.224863 329.096765,107.183764 333.377137,107.978853 L334.053131,108.103056 C339.916162,109.168095 345.975695,109.942465 358.609889,110.844251 C366.880426,111.434574 378.489176,111.91143 390.142414,112.277969 L392.031998,112.336442 C411.236156,112.921089 430.077316,113.206354 433.795979,113.206354 C439.892149,113.206354 447.852295,98.979953 460.212714,95.4905823 C467.628965,93.3969599 480.776522,92.9653274 490.985815,92.9550009 L491.996629,92.9553267 C498.332354,92.965702 503.373594,93.1284794 504.917957,93.1284794 C508.98207,93.1284794 504.917957,108.482148 541.494974,110.844251 C565.879652,112.418986 580.104048,113.206354 584.168161,113.206354 C577.394639,110.844251 574.68523,109.269516 576.039935,108.482148 C577.279489,107.761707 591.909473,108.653502 606.495118,109.547522 L607.929155,109.635409 C616.765662,110.176722 625.423796,110.699433 630.90546,110.844251 C640.782333,111.105185 652.297319,111.105185 665.450421,110.844251 C642.420447,103.757942 632.260165,100.214788 634.969573,100.214788 C639.033686,100.214788 708.094918,107.755898 740.636512,104.938994 C762.330908,103.061058 790.779699,95.9747492 825.982885,83.6800679 C825.982885,89.9790089 827.337589,93.1284794 830.046998,93.1284794 C832.756407,93.1284794 834.788463,89.9790089 836.143168,83.6800679 L850.367563,96.6716338 L852.108903,98.52757 L840.207281,77.7748107 L836.143168,58.8779877 L839.956903,45.57457 L838.175224,45.8864218 C840.884633,30.9264369 847.658154,21.0843416 858.495789,16.3601358 C869.333424,11.6359301 882.203115,12.0296139 897.104863,17.5411873 Z M61.9296387,3.36857 C63.8870997,3.89381346 65.9191562,4.68118109 68.0258082,5.73067288 C71.1857862,7.30491057 75.7484443,13.0543057 78.1860907,16.3601358 C79.8111884,18.5640226 81.8432449,22.1071769 84.2822603,26.9895988 L92.4104863,44.7053704 L49.7372996,44.7053704 L43.6411301,39.9811646 C35.3008346,39.2968325 31.2367216,37.7220973 31.4487911,35.2569589 C31.7668954,31.5592513 41.7465845,23.2066765 45.6731866,16.3601358 C49.5997888,9.5135952 44.1809938,10.423145 47.7052431,6.91172432 C50.0547427,4.57077721 54.7962079,3.38972577 61.9296387,3.36857 Z"/><path fill="#B89E7A" d="M92.4104863,45.8864218 C75.4740738,45.8040198 64.6364391,46.1977036 59.8975822,47.0674733 C57.456658,47.5154805 53.9767231,46.8639415 49.7372996,50.6106276 C45.7462254,54.1378296 36.8497248,63.8588018 35.5129041,68.3263992 C34.1760834,72.7939966 40.6043421,75.0022397 41.6090736,77.7748107 C43.1644194,82.0668097 41.5732365,85.5590802 43.6411301,87.2232222 C47.044854,89.9623766 53.1410235,90.7497442 61.9296387,89.5853251 L57.8655257,96.6716338 L45.6731866,104.938994 L35.5129041,104.938994 C40.5724835,107.436407 45.3139486,108.617458 49.7372996,108.482148 C54.1606507,108.346838 64.3209332,106.772103 80.2181472,103.757942 C83.051429,99.4136357 85.7608376,93.9020623 88.3463733,87.2232222 C90.9319089,80.5443822 92.2866132,70.3086031 92.4104863,56.5158848 L92.4104863,45.8864218 Z M864.591959,58.8779877 L876.784298,58.8779877 L886.94458,61.2400906 L893.04075,65.9642963 L893.04075,74.2316564 L888.976637,81.317965 L878.816354,83.6800679 L858.495789,82.4990165 L858.495789,71.8695535 L864.591959,58.8779877 Z"/><g stroke="#000" stroke-linecap="round" stroke-width="2" transform="translate(3 1.006)"><path d="M875.816354 7.08630864C766.085303 17.3220878 692.253917 22.4399774 654.322195 22.4399774 616.390474 22.4399774 415.894232 14.9599849 52.8334692 0 17.6111564 1.57473525 0 23.227345 0 64.9578292 0 106.688313 17.6111564 128.340923 52.8334692 129.915658M877.848411 7.08630864C918.489541 9.44841152 937.455402 30.3136536 934.745993 69.682035 932.036584 109.050416 919.844245 129.521975 898.168976 131.09671L457.212714 120.467247 463.308883 116.924093C436.453349 118.827235 416.810136 119.614603 404.379245 119.286195 391.948353 118.957788 381.788071 117.383053 373.898397 114.56199L363.738115 116.924093 341.385493 116.924093C274.290914 117.793513 224.166853 118.974565 191.013312 120.467247 157.85977 121.959929 111.799823 125.109399 52.8334692 129.915658"/><path d="M845.335507,21.2589259 C831.788463,40.155749 829.756407,60.6273073 839.239337,82.6736008 C848.722267,104.719894 868.36548,118.498828 898.168976,124.010401"/><path d="M835.175224,44.8799547 C882.589876,34.6441756 906.297202,43.6989033 906.297202,72.0441378 C906.297202,100.389372 892.750158,109.050416 865.656072,98.0272695"/><path d="M894.104863,109.837784 C875.139002,107.475681 862.946663,99.6020048 857.527846,86.2167551 C852.109028,72.8315055 854.141085,63.3830939 863.624015,57.8715206"/><path d="M851.431676 59.052572C877.171059 55.1157339 890.04075 58.6588882 890.04075 69.682035 890.04075 80.7051817 881.912524 85.0357037 865.656072 82.6736008M60.9616952 1.18105144C82.6369646 17.7157716 92.119895 40.5494328 89.4104863 69.682035 86.7010776 98.8146371 69.7672734 116.136725 38.6090736 121.648298"/><path d="M38.6090736,61.4146749 C48.092004,42.5178518 56.8975822,41.3368004 65.0258082,57.8715206 C77.2181472,82.6736008 42.6731866,103.932527 38.6090736,103.932527 C34.5449606,103.932527 16.2564521,100.389372 24.3846781,61.4146749 C29.8034954,35.4315432 49.4467083,25.1957641 83.3143168,30.7073374"/></g><g transform="translate(41 131)"><polygon fill="#F0E7DB" points="0 15 0 69 26.648 63 0 86 0 137 26.648 142 0 142 0 213 48.451 209 0 218 0 296 26.648 313 0 307 2.423 381 9.69 387 0 390 0 482 847 434 847.887 368 811.549 362 847.887 358 847.887 307 828.507 303 847.887 296 847.887 272 828.507 265 847.887 262 860 151 838.197 120 860 117 860 72 845.465 52 855.155 30 855.155 15"/><path fill="#E1D1B7" d="M29.0704225,62 L0,105 L0,88 L29.0704225,62 Z M33.915493,143 C30.4724187,147.087936 26.43486,150.087936 21.8028169,152 C17.1707738,153.912064 9.9031682,155.578731 0,157 L0,143 L33.915493,143 Z M65.4084507,207 C53.6745683,212.893783 43.1769157,217.893783 33.915493,222 C24.6540702,226.106217 13.3489059,230.772883 0,236 L0,218 L65.4084507,207 Z M29.0704225,314 L0,326 L0,308 L29.0704225,314 Z M9.69014085,387 L0,412 L0,390 L9.69014085,387 Z M835.774648,120 L835.774648,154 L860,151 L835.774648,120 Z M826.084507,265 L847.887324,272 C838.600939,275.166667 832.140845,276.166667 828.507042,275 C824.873239,273.833333 824.065728,270.5 826.084507,265 Z M826.084507,303 L847.887324,321 L847.887324,307 L826.084507,303 Z M811.549296,362 L847.887324,368 C838.055448,378.376597 829.980331,383.043264 823.661972,382 C817.343613,380.956736 813.306054,374.290069 811.549296,362 Z"/><polyline stroke="#000" stroke-linecap="round" stroke-width="2" points="1 0 0 69 26.462 63 0 86 0 137 26.462 142 0 142 0 213 48.112 209 0 218 0 296 24.056 312 0 307 0 380 9.622 387 0 390 0 482"/><polyline stroke="#000" stroke-linecap="round" stroke-width="2" points="855 1 855.189 30 845.566 52 860 72 860 117 838.35 120 860 151 847.972 262 828.727 265 847.972 272 847.972 296 828.727 303 847.972 307 847.972 358 811.888 362 847.972 368 848 434"/></g><g transform="translate(1 556)"><path fill="#E1D1B7" d="M94.4279031,9.09494702e-13 L886.427903,9.09494702e-13 L886.427903,10.5263158 C710.427903,16.6666667 577.68214,19.7368421 488.190615,19.7368421 C398.69909,19.7368421 267.444852,16.6666667 94.4279031,10.5263158 L94.4279031,9.09494702e-13 Z"/><path fill="#F0E7DB" d="M87.9401376,140.789474 C300.796823,125.600322 459.386645,118.582779 563.709604,119.736842 C668.032563,120.890906 786.974929,130.978625 920.536704,150 C933.512235,138.011696 940,125.730994 940,113.157895 C940,104.385965 932.070509,86.8421053 916.211527,60.5263158 L920.536704,55.2631579 C920.990049,48.6953906 918.827461,42.1164433 914.048938,35.5263158 C909.270416,28.9361883 900.620062,20.1642585 888.097876,9.21052632 C760.519783,14.7510433 645.902593,16.9440258 544.246308,15.7894737 C459.239194,14.8240131 326.491288,11.9504428 224.183212,7.89473684 C142.972665,4.67538105 80.9551445,9.09494702e-13 77.1271952,9.09494702e-13 C68.4768413,9.09494702e-13 60.7105617,13.7229919 55.5013104,23.6842105 C52.0284762,30.3250229 49.1450249,41.7285317 46.8509564,57.8947368 C22.5000142,48.6947408 8.08275762,46.5017584 3.59918679,51.3157895 C-3.12616946,58.5368361 -0.124611771,76.865359 10.0869522,97.3684211 C20.2985162,117.871483 25.2250716,125 46.8509564,138.157895 C61.268213,146.929825 74.9646067,147.807018 87.9401376,140.789474 Z"/><path fill="#E1D1B7" d="M74.9646067,9.09494702e-13 L98.75308,2.63157895 L109.566022,6.57894737 L120.378965,15.7894737 L124.704142,27.6315789 L124.704142,46.0526316 L120.378965,72.3684211 L111.728611,98.6842105 L95.5095407,129.274 L100.915669,121.052632 L107.403434,107.894737 C112.73666,111.852806 116.340974,114.045788 118.216376,114.473684 C121.02948,115.115528 120.276938,111.457297 124.704142,111.842105 C129.131346,112.226913 129.214983,118.308089 133.354496,115.789474 C137.494009,113.270859 142.00485,98.6842105 146.330027,98.6842105 C148.696633,98.6842105 149.970452,101.503291 151.236755,104.238324 L151.498997,104.802041 C152.46277,106.857624 153.465291,108.749611 154.980381,109.210526 C158.630368,110.320912 165.793323,105.263158 167.955912,105.263158 C170.1185,105.263158 171.748068,108.741927 174.443677,109.210526 C177.139286,109.679125 176.905167,107.894737 183.094031,107.894737 C187.21994,107.894737 191.545117,108.333333 196.069562,109.210526 C200.048095,105.688296 209.419312,103.495313 224.183212,102.631579 C233.705928,102.07447 239.639813,101.852624 248.037905,101.84258 L249.226333,101.842541 C260.278026,101.854553 275.821809,102.203683 308.524163,102.631579 C341.880564,103.068033 361.632503,103.842999 379.800871,104.439305 L381.08087,104.481094 C381.506764,104.49492 381.931938,104.50864 382.356549,104.522249 L383.628846,104.562729 L384.898702,104.602495 C385.110193,104.609061 385.321622,104.615595 385.533008,104.622097 L388.703015,104.717099 C388.91446,104.723257 389.12596,104.729379 389.337534,104.735463 L391.263532,104.78972 C401.552264,105.073351 412.155403,105.263158 425.303941,105.263158 C452.696728,105.263158 458.463631,100.438596 442.604649,90.7894737 C538.452936,100.278344 609.818356,105.102906 656.700909,105.263158 C727.024738,105.503536 821.057633,92.1052632 827.545399,92.1052632 C834.033164,92.1052632 833.312301,96.0526316 836.195753,96.0526316 C839.079204,96.0526316 842.683518,90.7894737 847.008695,90.7894737 C851.333872,90.7894737 853.383317,102.870434 855.659049,103.947368 C857.934781,105.024303 862.146815,96.0526316 866.471992,100 C870.797169,103.947368 879.451153,121.052632 883.772699,121.052632 C885.68884,121.052632 885.480619,116.913754 884.843692,112.306291 L884.763674,111.74002 L884.680062,111.170562 C884.665866,111.07547 884.651548,110.980307 884.637125,110.885106 L884.526657,110.167526 L884.413528,109.451429 C883.634516,104.569922 882.76513,100 883.772699,100 C885.214425,100 892.423053,105.701754 905.398584,117.105263 L907.561173,122.368421 C919.094978,121.491228 925.582743,121.491228 927.024469,122.368421 C928.441337,123.23049 926.475195,126.137817 924.734448,129.290675 L924.461992,129.790273 C923.653401,131.293613 922.937996,132.830792 922.699292,134.210526 C922.186521,137.174401 922.186521,141.560366 922.699292,147.368421 L920.536704,150 L834.033164,138.157895 L697.79009,125 L622.099493,121.052632 L533.433365,118.421053 L462.067945,121.052632 L379.889583,123.684211 L299.873809,127.631579 L241.48392,130.263158 L150.655204,136.842105 L87.9401376,140.789474 L88.1935407,140.402 L79.2897837,144.736842 L64.1516643,144.736842 L46.8509564,138.157895 L29.5502486,127.631579 L16.5747177,109.210526 L37.6155407,123.293 L36.038014,121.052632 L20.8998947,100 L12.2495407,77.6315789 L14.4121292,61.8421053 L20.8998947,51.3157895 C28.014632,52.1644193 33.0606718,53.0416123 36.038014,53.9473684 C39.0153563,54.8531246 42.6196704,56.6075105 46.8509564,59.2105263 L31.7128371,67.1052632 L31.7128371,73.6842105 L38.2006025,86.8421053 C37.3861621,83.4366583 38.107025,81.2436758 40.363191,80.2631579 C42.619357,79.28264 46.944534,79.28264 53.3387219,80.2631579 C56.1639632,68.7779241 59.0474145,62.6375732 61.9890758,61.8421053 C66.4015678,60.6489034 71.2482015,68.6185982 72.8020182,75 C73.8378961,79.2542679 73.1170332,86.7104082 70.6394298,97.3684211 L70.6394298,98.6842105 L77.1271952,88.1578947 L79.2897837,78.9473684 L94.4279031,78.9473684 L85.7775491,96.0526316 L77.1271952,113.157895 L75.1753233,115.089169 C79.567424,127.402087 88.1475391,120.179381 100.915669,93.4210526 C113.891199,66.2280702 111.728611,42.9824561 94.4279031,23.6842105 L79.2897837,23.6842105 L96.5904916,36.8421053 L98.75308,46.0526316 C88.1609764,43.6357066 81.6732109,43.6357066 79.2897837,46.0526316 C75.7146429,49.678019 88.941935,60.0662222 85.7775491,59.2105263 C82.6131633,58.3548304 62.2071996,53.8260015 59.8264873,40.7894737 C58.2393459,32.0984551 63.2853856,18.5019639 74.9646067,9.09494702e-13 Z M888.097876,10.5263158 L903.235996,22.3684211 L914.048938,35.5263158 L918.374115,43.4210526 L920.536704,52.6315789 L914.048938,48.6842105 L901.073407,39.4736842 L896.74823,31.5789474 C894.681759,37.0969137 894.681759,41.9214751 896.74823,46.0526316 C898.814701,50.183788 905.302467,54.5697529 916.211527,59.2105263 L903.235996,67.1052632 L892.423053,81.5789474 L888.097876,57.8947368 L888.097876,10.5263158 Z"/><path fill="#B89E7A" d="M98.75308,46.0526316 C87.711618,44.0913805 81.2238526,44.0913805 79.2897837,46.0526316 C77.3557148,48.0138827 79.5183033,52.3998476 85.7775491,59.2105263 C69.7062717,53.6620552 61.0559178,47.5217043 59.8264873,40.7894737 C58.5970569,34.057243 63.6430967,20.4607518 74.9646067,0 L92.2653146,1.31578947 L109.566022,6.57894737 L120.378965,15.7894737 L124.704142,27.6315789 L100.915669,23.6842105 L77.1271952,23.6842105 L87.9401376,27.6315789 L98.75308,46.0526316 Z M55.5013104,127.631579 L68.4768413,121.052632 L77.1271952,110.526316 L87.9401376,93.4210526 L94.4279031,78.9473684 C91.5444518,78.0701754 84.3358235,78.5087719 72.8020182,80.2631579 C61.268213,82.0175439 44.688368,89.0350877 23.0624831,101.315789 C27.313895,109.997957 30.9182091,116.138308 33.8754256,119.736842 C36.832642,123.335376 40.4369561,125.966955 44.688368,127.631579 L55.5013104,127.631579 Z"/><g stroke="#000" stroke-linecap="round" stroke-width="2"><path d="M87.9401376,140.789474 C300.796823,125.600322 459.386645,118.582779 563.709604,119.736842 C668.032563,120.890906 786.974929,130.978625 920.536704,150 C933.512235,138.011696 940,125.730994 940,113.157895 C940,104.385965 932.070509,86.8421053 916.211527,60.5263158 L920.536704,55.2631579 C920.990049,48.6953906 918.827461,42.1164433 914.048938,35.5263158 C909.270416,28.9361883 900.620062,20.1642585 888.097876,9.21052632 C760.519783,14.7510433 645.902593,16.9440258 544.246308,15.7894737 C459.239194,14.8240131 326.491288,11.9504428 224.183212,7.89473684 C142.972665,4.67538105 80.9551445,0 77.1271952,0 C68.4768413,0 60.7105617,13.7229919 55.5013104,23.6842105 C52.0284762,30.3250229 49.1450249,41.7285317 46.8509564,57.8947368 C22.5000142,48.6947408 8.08275762,46.5017584 3.59918679,51.3157895 C-3.12616946,58.5368361 -0.124611771,76.865359 10.0869522,97.3684211 C20.2985162,117.871483 25.2250716,125 46.8509564,138.157895 C61.268213,146.929825 74.9646067,147.807018 87.9401376,140.789474 Z"/><path d="M77.1271952,0 C114.612062,0 130.471044,17.1052632 124.704142,51.3157895 C118.937239,85.5263158 106.682571,115.350877 87.9401376,140.789474"/><path d="M46.8509564,127.631579 C66.3142528,128.947368 77.1271952,113.157895 87.9401376,94.7368421 C98.75308,76.3157895 107.403434,43.4210526 87.9401376,28.9473684 C74.9646067,19.2982456 69.9185669,23.245614 72.8020182,40.7894737"/><path d="M77.1271952 23.6842105C80.2088622 22.7437183 87.4174905 22.7437183 98.75308 23.6842105 110.08867 24.6247027 118.739024 25.9404922 124.704142 27.6315789M37.2485182 88.1578947C32.6241077 79.420264 30.7666074 73.2799131 31.6760172 69.7368421 32.5854271 66.1937711 36.9195945 63.1235957 44.6785195 60.5263158 63.2535227 53.5087719 72.5410243 59.2105263 72.5410243 77.6315789 72.5410243 96.0526316 64.4918562 104.824561 48.3935201 103.947368M888.097876 9.21052632C886.443223 37.7600717 887.884949 61.8828787 892.423053 81.5789474 896.961158 101.275016 906.332375 124.082034 920.536704 150"/><path d="M916.211527 59.2105263C910.444272 62.4804147 906.119095 65.5505901 903.235996 68.4210526 900.352897 71.2915151 896.748583 76.1160765 892.423053 82.8947368M905.398584 118.421053C909.795414 116.436007 914.120591 113.804428 918.374115 110.526316 922.627639 107.248204 927.673679 101.546449 933.512235 93.4210526"/></g></g></g></svg>